PathFileType	4	(X/Y/Z)	SUBJ89_1_walk_RCNL2025.trc
DataRate	CameraRate	NumFrames	NumMarkers	Units	OrigDataRate	OrigDataStartFrame	OrigNumFrames
100	100	8	25	mm	100	92	243
Frame#	Time	R_Shoulder			L_Shoulder			C7			J_Notch			R_Elbow			L_Elbow			R_Wrist			L_Wrist			R_Asis			L_Asis			Sacral			Thoracic			Sternum			R_Thigh_Lateral			R_Knee_Lateral			R_Shank_Lateral			R_Ankle_Lateral			R_Heel			R_Toe			L_Thigh_Lateral			L_Knee_Lateral			L_Shank_Lateral			L_Ankle_Lateral			L_Heel			L_Toe		
		X1	Y1	Z1	X2	Y2	Z2	X3	Y3	Z3	X4	Y4	Z4	X5	Y5	Z5	X6	Y6	Z6	X7	Y7	Z7	X8	Y8	Z8	X9	Y9	Z9	X10	Y10	Z10	X11	Y11	Z11	X12	Y12	Z12	X13	Y13	Z13	X14	Y14	Z14	X15	Y15	Z15	X16	Y16	Z16	X17	Y17	Z17	X18	Y18	Z18	X19	Y19	Z19	X20	Y20	Z20	X21	Y21	Z21	X22	Y22	Z22	X23	Y23	Z23	X24	Y24	Z24	X25	Y25	Z25
92	0.91000000	-655.598206	1370.491577	430.911621	-703.011475	1378.856079	17.252186	-749.784485	1464.398438	233.350723	-626.180298	1341.086182	224.247101	-718.930115	1039.875366	483.484802	-812.759949	1053.091797	-11.135085	-588.246094	802.668213	463.002701	-799.439941	788.789246	-50.663185	-655.786804	946.397705	361.294739	-634.851746	945.829285	121.764717	-812.221802	1006.084656	235.986267	-830.987366	1292.880493	238.255661	-596.753357	1192.012939	215.682617	-793.428711	576.327026	408.366180	-843.241455	465.801971	346.908966	-973.636963	277.715668	384.424561	-1092.481567	109.198036	302.946198	-1131.395874	119.251442	259.645966	-960.001587	29.557943	281.406250	-548.106445	545.608521	35.520973	-517.216858	478.281006	110.127655	-481.487000	248.142914	70.367401	-416.612915	61.389080	139.400864	-453.547546	59.374992	190.155777	-263.415222	68.350449	150.048126
93	0.92000000	-640.101501	1370.770630	429.156494	-687.088928	1377.515747	15.317087	-734.139832	1464.308716	231.032028	-610.427979	1340.944824	222.487595	-705.065979	1040.224121	481.379333	-796.902954	1051.865723	-11.587816	-576.513672	801.688599	462.764389	-787.657501	787.538239	-50.733671	-639.165833	945.225037	360.489136	-618.818115	946.870544	120.960533	-796.066895	1006.130310	236.222397	-815.156128	1292.756836	236.672623	-580.635437	1192.007080	214.473480	-775.284607	574.862976	407.871155	-825.020630	464.272369	347.228821	-961.225403	280.651337	385.190613	-1086.269287	116.351341	304.964294	-1124.478882	128.401138	261.805145	-959.923096	29.360552	281.527161	-528.624451	549.181274	36.278183	-499.402802	479.940491	110.826248	-468.788757	248.974823	71.045349	-412.537659	60.431915	140.169052	-449.847015	59.905499	190.796234	-258.687042	59.742859	151.455582
94	0.93000000	-624.539062	1371.597046	427.393555	-671.060486	1376.663696	13.408620	-718.483093	1464.718628	228.719833	-594.672302	1341.304077	220.724289	-691.372375	1041.181396	479.285522	-780.752563	1051.068848	-12.050427	-565.354340	801.118622	462.464478	-775.065216	786.758240	-50.691244	-622.485046	944.418396	359.482300	-602.962036	948.580139	120.039413	-779.950134	1006.619812	236.654861	-799.326599	1293.071289	235.129944	-564.478943	1192.514648	213.239716	-755.833374	573.444275	407.312103	-805.297302	462.762238	347.666626	-947.587036	284.134094	385.922668	-1078.507812	124.233131	306.800476	-1115.627808	138.366974	263.606262	-959.569336	29.196884	281.666321	-509.188110	553.230591	37.022129	-481.912659	481.952484	111.508636	-456.229706	250.229233	71.364136	-409.289398	59.918587	140.761795	-446.989899	60.748047	191.177246	-254.876572	52.236351	152.562637
95	0.94000000	-608.936096	1372.963501	425.635468	-654.953857	1376.330933	11.561439	-702.873840	1465.580933	226.454758	-578.943848	1342.142090	218.993118	-677.834167	1042.751709	477.257202	-764.351868	1050.732178	-12.506396	-554.758087	801.001099	462.078766	-761.620911	786.464020	-50.551357	-605.848022	944.015076	358.292175	-587.302246	950.875244	119.022392	-763.916565	1007.493103	237.191910	-783.546753	1293.780029	233.655472	-548.315369	1193.511475	212.018295	-735.104187	572.112183	406.763550	-784.078552	461.300385	348.252655	-932.598694	288.141968	386.621429	-1068.947021	132.737198	308.384094	-1104.573364	148.982574	264.948578	-958.684753	29.159521	281.879608	-490.050293	557.368164	37.757996	-465.021973	484.056854	112.191078	-444.162750	251.640228	71.481125	-406.683411	59.761906	141.286407	-444.762909	61.748840	191.422928	-251.808441	46.149979	153.418411
96	0.95000000	-593.341675	1374.830933	423.896606	-638.798401	1376.525024	9.803563	-687.370544	1466.827515	224.270721	-563.276001	1343.417847	217.332458	-664.441956	1044.901367	475.349640	-747.748779	1050.861572	-12.945700	-544.685944	801.356934	461.596146	-747.298370	786.645874	-50.332134	-589.352295	944.036560	356.954559	-571.827454	953.635864	117.925110	-748.007629	1008.693848	237.721771	-767.861694	1294.832153	232.257172	-532.183167	1194.954102	210.851257	-713.217346	570.912109	406.300659	-761.451843	459.917297	348.987610	-916.141296	292.578644	387.287140	-1057.383179	141.690155	309.676361	-1091.147095	160.002457	265.789825	-956.895325	29.381603	282.240845	-471.620728	561.156067	38.454762	-449.035645	486.005005	112.862419	-433.004242	252.982529	71.563644	-404.594116	59.862091	141.815262	-443.022125	62.778229	191.632874	-249.353821	41.559860	154.097839
97	0.96000000	-577.827087	1377.130005	422.198730	-622.625488	1377.225708	8.155008	-672.017212	1468.391602	222.195450	-547.704285	1345.079224	215.777924	-651.193420	1047.556763	473.612152	-730.991028	1051.432739	-13.367073	-535.070099	802.177917	461.021347	-732.092316	787.263824	-50.051474	-573.083557	944.488708	355.523132	-556.506042	956.720032	116.763176	-732.261780	1010.177429	238.132858	-752.308044	1296.179932	230.925201	-516.133179	1196.783081	209.777451	-690.395569	569.893005	405.977539	-737.586548	458.650330	349.834930	-898.120300	297.278381	387.911987	-1043.695435	150.871490	310.668945	-1075.328735	171.119827	266.149384	-953.697144	30.041410	282.847412	-454.433319	564.218384	39.037781	-434.226837	487.618866	113.481895	-423.107361	254.115692	71.721512	-402.950043	60.121269	142.372238	-441.675140	63.743832	191.862778	-247.432007	38.348728	154.668457
98	0.97000000	-562.475525	1379.769287	420.573517	-606.468628	1378.388550	6.628571	-656.834717	1470.222656	220.250748	-532.265137	1347.071045	214.357773	-638.092896	1050.614014	472.081482	-714.120911	1052.394897	-13.776915	-525.821762	803.423431	460.372025	-716.013794	788.252625	-49.726021	-557.109436	945.364136	354.065277	-541.310120	959.978821	115.562401	-716.713257	1011.911499	238.334259	-736.913330	1297.787720	229.639862	-500.225739	1198.930664	208.824905	-666.957764	569.110168	405.812286	-712.713562	457.553375	350.728027	-878.494629	302.040100	388.476776	-1027.876221	160.048538	311.372589	-1057.265991	182.003571	266.092682	-948.473999	31.351191	283.818878	-439.009399	566.360657	39.402660	-420.782471	488.815643	113.988464	-414.700287	254.986664	71.977798	-401.709717	60.455624	142.939331	-440.658875	64.593346	192.122559	-245.986618	36.282444	155.165390
99	0.98000000	-547.368164	1382.650146	419.060455	-590.361938	1379.954346	5.232119	-641.822388	1472.289917	218.451340	-516.991333	1349.339722	213.091415	-625.150208	1053.953857	470.776581	-697.170593	1053.679810	-14.186789	-516.842285	805.027283	459.676727	-699.082825	789.534973	-49.371147	-541.474304	946.647827	352.651550	-526.237183	963.270752	114.364395	-701.388794	1013.874084	238.270782	-721.696228	1299.635010	228.379700	-484.521912	1201.328369	208.006760	-643.283691	568.632385	405.787445	-687.089478	456.707794	351.590973	-857.301880	306.684235	388.955994	-1010.037903	169.011078	311.802185	-1037.250122	192.340042	265.700348	-940.559814	33.518818	285.279907	-425.659607	567.611145	39.459381	-408.783447	489.597900	114.318237	-407.862640	255.605377	72.280930	-400.831696	60.803566	143.476578	-439.921356	65.309303	192.389755	-244.959229	35.084927	155.593018
